<?xml version="1.0" standalone="no"?>
<!DOCTYPE svg PUBLIC "-//W3C//DTD SVG 20010904//EN"
 "http://www.w3.org/TR/2001/REC-SVG-20010904/DTD/svg10.dtd">
<svg version="1.0" xmlns="http://www.w3.org/2000/svg"
 width="900.000000pt" height="537.000000pt" viewBox="0 0 900.000000 537.000000"
 preserveAspectRatio="xMidYMid meet">

<g transform="translate(0.000000,537.000000) scale(0.100000,-0.100000)"
fill="#000000" stroke="none">
<path d="M2119 4571 l-121 -370 66 -395 c36 -217 66 -402 66 -410 0 -8 -18
-25 -40 -37 -22 -13 -40 -26 -40 -30 0 -4 28 -33 63 -63 l62 -56 -54 -48 -54
-48 74 -68 74 -67 -47 -42 -47 -42 100 -125 c55 -69 104 -129 109 -134 7 -7
331 89 898 265 136 42 112 26 450 298 248 199 402 332 402 345 -1 6 -69 63
-153 126 -528 399 -1667 1259 -1676 1264 -6 4 -56 -134 -132 -363z"/>
<path d="M6204 4533 c-1314 -991 -1305 -984 -1292 -1001 18 -21 337 -287 471
-392 60 -47 141 -111 180 -142 39 -32 85 -62 102 -68 181 -58 980 -300 986
-298 4 2 54 62 112 134 l105 131 -47 41 -46 41 74 68 73 67 -53 48 -54 48 65
60 c70 64 70 62 8 96 -17 8 -28 23 -28 35 0 11 29 195 65 410 l65 390 -121
369 c-66 204 -122 370 -124 370 -1 0 -245 -183 -541 -407z"/>
<path d="M3685 2165 c-98 -45 -181 -87 -182 -92 -3 -8 508 -145 515 -138 3 3
-145 315 -150 314 -2 0 -84 -38 -183 -84z"/>
<path d="M5041 2094 c-40 -85 -72 -156 -70 -158 6 -6 519 127 519 135 0 5
-362 179 -372 179 -2 0 -36 -70 -77 -156z"/>
<path d="M4183 1309 c-42 -25 -53 -37 -58 -62 -9 -51 -45 -363 -45 -387 0 -21
1 -21 31 4 l31 26 351 0 352 0 37 -25 c20 -14 39 -25 41 -25 3 0 -40 381 -48
415 -3 12 -29 33 -67 53 l-63 33 -255 -1 -255 -1 -52 -30z"/>
</g>
</svg>
